<svg width="25" height="24" viewBox="0 0 25 24" fill="none" xmlns="http://www.w3.org/2000/svg">
<path d="M21.6667 11H20.5967C20.3736 9.23998 19.5717 7.60408 18.3172 6.34959C17.0627 5.0951 15.4268 4.29319 13.6667 4.07V3C13.6667 2.73478 13.5614 2.48043 13.3739 2.29289C13.1863 2.10536 12.932 2 12.6667 2C12.4015 2 12.1472 2.10536 11.9596 2.29289C11.7721 2.48043 11.6667 2.73478 11.6667 3V4.07C9.90673 4.29319 8.27082 5.0951 7.01633 6.34959C5.76184 7.60408 4.95994 9.23998 4.73675 11H3.66675C3.40153 11 3.14718 11.1054 2.95964 11.2929C2.7721 11.4804 2.66675 11.7348 2.66675 12C2.66675 12.2652 2.7721 12.5196 2.95964 12.7071C3.14718 12.8946 3.40153 13 3.66675 13H4.73675C4.95994 14.76 5.76184 16.3959 7.01633 17.6504C8.27082 18.9049 9.90673 19.7068 11.6667 19.93V21C11.6667 21.2652 11.7721 21.5196 11.9596 21.7071C12.1472 21.8946 12.4015 22 12.6667 22C12.932 22 13.1863 21.8946 13.3739 21.7071C13.5614 21.5196 13.6667 21.2652 13.6667 21V19.93C15.4268 19.7068 17.0627 18.9049 18.3172 17.6504C19.5717 16.3959 20.3736 14.76 20.5967 13H21.6667C21.932 13 22.1863 12.8946 22.3739 12.7071C22.5614 12.5196 22.6667 12.2652 22.6667 12C22.6667 11.7348 22.5614 11.4804 22.3739 11.2929C22.1863 11.1054 21.932 11 21.6667 11ZM12.6667 18C11.4801 18 10.32 17.6481 9.33333 16.9888C8.34663 16.3295 7.5776 15.3925 7.12347 14.2961C6.66934 13.1997 6.55052 11.9933 6.78204 10.8295C7.01355 9.66557 7.58499 8.59647 8.42411 7.75736C9.26322 6.91824 10.3323 6.3468 11.4962 6.11529C12.6601 5.88378 13.8665 6.0026 14.9628 6.45672C16.0592 6.91085 16.9963 7.67988 17.6556 8.66658C18.3149 9.65327 18.6667 10.8133 18.6667 12C18.6667 13.5913 18.0346 15.1174 16.9094 16.2426C15.7842 17.3679 14.258 18 12.6667 18ZM12.6667 9C12.0734 9 11.4934 9.17595 11 9.50559C10.5067 9.83524 10.1222 10.3038 9.89511 10.8519C9.66805 11.4001 9.60864 12.0033 9.72439 12.5853C9.84015 13.1672 10.1259 13.7018 10.5454 14.1213C10.965 14.5409 11.4995 14.8266 12.0815 14.9424C12.6634 15.0581 13.2666 14.9987 13.8148 14.7716C14.363 14.5446 14.8315 14.1601 15.1612 13.6667C15.4908 13.1734 15.6667 12.5933 15.6667 12C15.6667 11.2044 15.3507 10.4413 14.7881 9.87868C14.2255 9.31607 13.4624 9 12.6667 9ZM12.6667 13C12.469 13 12.2756 12.9414 12.1112 12.8315C11.9467 12.7216 11.8186 12.5654 11.7429 12.3827C11.6672 12.2 11.6474 11.9989 11.686 11.8049C11.7245 11.6109 11.8198 11.4327 11.9596 11.2929C12.0995 11.153 12.2777 11.0578 12.4717 11.0192C12.6656 10.9806 12.8667 11.0004 13.0494 11.0761C13.2322 11.1518 13.3883 11.28 13.4982 11.4444C13.6081 11.6089 13.6667 11.8022 13.6667 12C13.6667 12.2652 13.5614 12.5196 13.3739 12.7071C13.1863 12.8946 12.932 13 12.6667 13Z" fill="#4697FA"/>
</svg>
